<svg width="108" height="108" viewBox="0 0 108 108" fill="none" xmlns="http://www.w3.org/2000/svg">
<rect width="108" height="108" rx="54" fill="#196ECF"></rect>
<rect x="5" y="5" width="98" height="98" rx="49" stroke="white" stroke-width="2"></rect>

<path d="M38.5 56.5L36.5 58.5C38.1 61.4 40.5 63.8 43.4 65.4L45.4 63.1C46.2 62.1 47.6 61.8 48.8 62.4L53.8 64.7C55 65.2 55.7 66.6 55.4 67.9L54.3 72.5C54 73.5 53.3 74.1 52.4 74.1C46.4 74.1 40.7 71.6 36.4 67.4C32.1 63.2 29.6 57.5 29.6 51.5C29.6 50.3 30.4 49.3 31.6 49L36.2 47.9C37.5 47.6 38.8 48.3 39.4 49.5L41.7 54.5C42.2 55.7 41.9 57 41 57.8L38.5 59.7" stroke="white" stroke-width="2.8" stroke-linecap="round" stroke-linejoin="round"></path>

<rect x="58" y="29" width="8" height="7" rx="2" fill="white"></rect>
<rect x="70" y="29" width="8" height="7" rx="2" fill="white"></rect>
<rect x="82" y="29" width="8" height="7" rx="2" fill="white"></rect>
<rect x="58" y="40" width="8" height="7" rx="2" fill="white"></rect>
<rect x="70" y="40" width="8" height="7" rx="2" fill="white"></rect>
<rect x="82" y="40" width="8" height="7" rx="2" fill="white"></rect>
<rect x="58" y="51" width="8" height="7" rx="2" fill="white"></rect>
<rect x="70" y="51" width="8" height="7" rx="2" fill="white"></rect>
<rect x="82" y="51" width="8" height="7" rx="2" fill="white"></rect>

<rect x="70" y="62" width="8" height="7" rx="2" fill="white" opacity="0.6"></rect>
</svg>