<svg width="108" height="108" viewBox="0 0 108 108" fill="none" xmlns="http://www.w3.org/2000/svg">
<rect width="108" height="108" rx="54" fill="#196ECF"></rect>
<g filter="url(#filter0_d_78_958)">
<path d="M74.625 49C75.3125 49 76 49.6875 76 50.375V72.4609C76 74.6953 74.1094 76.5 71.875 76.5H36.125C33.8047 76.5 32 74.6953 32 72.375V50.375C32 49.6875 32.6016 49 33.375 49C34.0625 49 34.75 49.6875 34.75 50.375V72.375C34.75 73.1484 35.3516 73.75 36.125 73.75H71.875C72.5625 73.75 73.25 73.1484 73.25 72.375V50.375C73.25 49.6875 73.8516 49 74.625 49ZM37.5 56.3047C37.5 56.2188 37.5 56.1328 37.5 56.0469C37.5 55.9609 37.5 55.9609 37.5 55.875V36.625C37.5 34.3906 39.3047 32.5 41.625 32.5H66.375C68.6094 32.5 70.5 34.3906 70.5 36.625V55.875C70.5 55.9609 70.4141 55.9609 70.4141 55.9609C70.4141 56.0469 70.4141 56.1328 70.4141 56.2188C70.3281 56.3047 70.3281 56.3906 70.3281 56.4766C70.2422 56.5625 70.2422 56.5625 70.1562 56.6484C70.0703 56.7344 70.0703 56.8203 69.9844 56.9062C69.8984 56.9062 69.8984 56.9062 69.8984 56.9062L58.4688 65.3281C57.1797 66.3594 55.6328 66.875 54 66.875C52.2812 66.875 50.7344 66.3594 49.4453 65.4141L38.0156 56.9922C38.0156 56.9922 38.0156 56.9922 37.9297 56.9922C37.8438 56.9062 37.8438 56.8203 37.7578 56.7344C37.6719 56.6484 37.6719 56.6484 37.5859 56.5625C37.5859 56.4766 37.5859 56.3906 37.5 56.3047ZM40.25 36.625V55.1875L51.0781 63.1797C52.7969 64.4688 55.1172 64.4688 56.8359 63.1797L67.75 55.1875V36.625C67.75 35.9375 67.0625 35.25 66.375 35.25H41.625C40.8516 35.25 40.25 35.9375 40.25 36.625ZM62.25 53.125C62.25 53.8984 61.5625 54.5 60.875 54.4141H47.125C46.3516 54.4141 45.75 53.8125 45.75 53.125C45.75 52.3516 46.3516 51.75 47.125 51.75H60.875C61.5625 51.75 62.25 52.3516 62.25 53.125ZM47.125 46.25C46.3516 46.25 45.75 45.6484 45.75 44.875C45.75 44.2734 46.3516 43.5859 47.125 43.5859H60.875C61.5625 43.5859 62.25 44.1875 62.25 44.875C62.25 45.5625 61.5625 46.25 60.875 46.25H47.125Z" fill="#E7F8FB"></path>
</g>
<rect x="5" y="5" width="98" height="98" rx="49" stroke="white" stroke-width="2"></rect>
<defs>
<filter id="filter0_d_78_958" x="20" y="24.5" width="68" height="68" filterUnits="userSpaceOnUse" color-interpolation-filters="sRGB">
<feFlood flood-opacity="0" result="BackgroundImageFix"></feFlood>
<feColorMatrix in="SourceAlpha" type="matrix" values="0 0 0 0 0 0 0 0 0 0 0 0 0 0 0 0 0 0 127 0" result="hardAlpha"></feColorMatrix>
<feOffset dy="4"></feOffset>
<feGaussianBlur stdDeviation="6"></feGaussianBlur>
<feComposite in2="hardAlpha" operator="out"></feComposite>
<feColorMatrix type="matrix" values="0 0 0 0 0 0 0 0 0 0 0 0 0 0 0 0 0 0 0.45 0"></feColorMatrix>
<feBlend mode="normal" in2="BackgroundImageFix" result="effect1_dropShadow_78_958"></feBlend>
<feBlend mode="normal" in="SourceGraphic" in2="effect1_dropShadow_78_958" result="shape"></feBlend>
</filter>
</defs>
</svg>