<svg width="108" height="108" viewBox="0 0 108 108" fill="none" xmlns="http://www.w3.org/2000/svg">
<rect width="108" height="108" rx="24" fill="#002677"></rect>
<rect x="5" y="5" width="98" height="98" rx="21" stroke="white" stroke-width="2"></rect>
<g filter="url(#filter0_d_89_653)">
<path d="M82 66.875C82 67.6484 81.3125 68.25 80.625 68.25H76.5C74.6953 68.25 73.1484 67.1328 72.5469 65.5H69.8828C69.7109 65.9297 69.5391 66.2734 69.2812 66.6172L68.5078 67.6484C67.3047 69.1094 65.2422 69.4531 63.6094 68.6797L61.8047 70.8281C60.2578 72.6328 57.5078 72.9766 55.6172 71.4297L55.1016 71C54.1562 71.7734 52.9531 72.2891 51.6641 72.375C51.4062 72.375 51.1484 72.375 50.9766 72.375C49.4297 72.375 47.9688 71.8594 46.7656 70.9141L39.8047 65.5H36.3672C35.7656 67.1328 34.2188 68.25 32.5 68.25H29.75C28.9766 68.25 28.375 67.6484 28.375 66.875C28.375 66.1875 28.9766 65.5 29.75 65.5H32.5C33.1875 65.5 33.875 64.8984 33.875 64.125V46.25H28.375C27.6016 46.25 27 45.6484 27 44.875C27 44.1875 27.6016 43.5 28.375 43.5H38.1719C41.0938 40.6641 44.7891 38.7734 48.7422 38.2578C49.5156 38.0859 50.2031 38.6875 50.2891 39.375C50.4609 40.1484 49.9453 40.8359 49.1719 40.9219C45.6484 41.4375 42.2969 43.2422 39.8047 45.8203L39.375 46.25H36.625V62.75H40.75L48.4844 68.7656C49.3438 69.4531 50.2891 69.7109 51.3203 69.625C52.3516 69.5391 53.2969 69.0234 53.8984 68.25L54.8438 67.3047L55.9609 68.0781L57.4219 69.2812C58.0234 69.8828 59.1406 69.7969 59.6562 69.0234L63.0938 64.8125L64.6406 66.1016C65.1562 66.5312 65.9297 66.4453 66.3594 65.8438L67.1328 64.8984C67.5625 64.3828 67.4766 63.6094 66.9609 63.1797L57.6797 55.6172C57.0781 55.1016 56.9922 54.2422 57.4219 53.6406C57.9375 53.125 58.7969 52.9531 59.3984 53.4688L68.6797 61.0312C69.2812 61.5469 69.625 62.1484 69.8828 62.75H72.375V46.25H69.5391L69.1094 45.9062C66.0156 42.6406 61.7188 40.75 57.5078 40.75H56.8203C56.4766 40.75 56.2188 40.9219 55.9609 41.0938L47.9688 48.6562C47.1094 49.4297 47.1953 50.7188 47.8828 51.4062C48.0547 51.5781 48.5703 52.0078 49.2578 52.0078C49.6875 52.0078 50.1172 51.8359 50.4609 51.4922L50.5469 51.5781C51.2344 50.8047 52.9531 49.1719 57.0781 45.3906C57.5938 44.875 58.4531 44.9609 58.9688 45.4766C59.4844 46.0781 59.4844 46.9375 58.8828 47.4531L52.3516 53.5547C51.4922 54.3281 50.4609 54.7578 49.3438 54.7578C49.2578 54.7578 49.1719 54.7578 49.0859 54.7578C47.625 54.6719 46.4219 53.8984 45.8203 53.2109C44.1016 51.3203 44.1875 48.5703 45.9922 46.7656V46.6797L54.0703 39.1172C54.8438 38.4297 55.7891 38 56.8203 38H57.5078C62.3203 38 67.0469 40.0625 70.6562 43.5H80.625C81.3125 43.5 82 44.1875 82 44.875C82 45.6484 81.3125 46.25 80.625 46.25H75.125V64.125C75.125 64.8984 75.7266 65.5859 76.4141 65.5859L80.625 65.5C81.3125 65.5 82 66.1875 82 66.875Z" fill="#E7F8FB"></path>
</g>
<defs>
<filter id="filter0_d_89_653" x="15" y="30" width="79" height="58.9766" filterUnits="userSpaceOnUse" color-interpolation-filters="sRGB">
<feFlood flood-opacity="0" result="BackgroundImageFix"></feFlood>
<feColorMatrix in="SourceAlpha" type="matrix" values="0 0 0 0 0 0 0 0 0 0 0 0 0 0 0 0 0 0 127 0" result="hardAlpha"></feColorMatrix>
<feOffset dy="4"></feOffset>
<feGaussianBlur stdDeviation="6"></feGaussianBlur>
<feComposite in2="hardAlpha" operator="out"></feComposite>
<feColorMatrix type="matrix" values="0 0 0 0 0 0 0 0 0 0 0 0 0 0 0 0 0 0 0.45 0"></feColorMatrix>
<feBlend mode="normal" in2="BackgroundImageFix" result="effect1_dropShadow_89_653"></feBlend>
<feBlend mode="normal" in="SourceGraphic" in2="effect1_dropShadow_89_653" result="shape"></feBlend>
</filter>
</defs>
</svg>