<svg width="108" height="108" viewBox="0 0 108 108" fill="none" xmlns="http://www.w3.org/2000/svg">
<rect width="108" height="108" rx="54" fill="#196ECF"></rect>
<g filter="url(#filter0_d_77_697)">
<path d="M70.5 32.5C73.5078 32.5 76 34.9922 76 38V62.75C76 65.7578 73.5078 68.25 70.5 68.25H58.125L47.3828 76.0703C46.6953 76.5859 45.75 76.1562 45.75 75.2969V68.0781H37.5C34.4062 68.0781 32 65.6719 32 62.6641V38C32 34.9922 34.4062 32.5 37.5 32.5H70.5ZM73.25 62.75V38C73.25 36.5391 71.9609 35.25 70.5 35.25H37.5C35.9531 35.25 34.75 36.5391 34.75 38V62.75C34.75 64.2969 35.9531 65.5 37.5 65.5H47.125C47.8125 65.5 48.5 66.1875 48.5 66.875V72.0312L56.4062 66.1016C56.9219 65.7578 57.4375 65.5 58.0391 65.5H70.5C71.9609 65.5 73.25 64.2969 73.25 62.75ZM42.6562 49.0859C44.1172 49.5156 46.8672 50.2891 46.2656 53.125C46.0078 54.8438 44.4609 55.875 42.3984 55.875C42.0547 55.875 41.7109 55.875 41.3672 55.7891C40.6797 55.7031 39.9062 55.4453 39.3047 55.2734C38.6172 55.0156 38.1016 54.1562 38.3594 53.4688C38.6172 52.6953 39.3047 52.2656 39.9922 52.5234C40.5938 52.7812 41.1953 53.0391 41.7969 53.125C42.7422 53.2969 43.6016 53.0391 43.6016 52.6953C43.6875 52.1797 42.6562 52.0078 41.5391 51.6641C40.5078 51.3203 37.6719 50.5469 38.1875 47.7109C38.5312 45.6484 40.5078 44.6172 43.1719 44.9609C43.6875 45.0469 44.2891 45.2188 44.8047 45.3906C45.4922 45.6484 45.9219 46.4219 45.6641 47.1953C45.4062 47.8828 44.6328 48.3125 43.8594 48.0547C43.5156 47.8828 43.0859 47.7969 42.7422 47.7109C41.7969 47.5391 40.9375 47.7109 40.9375 48.1406C40.8516 48.6562 41.7109 48.8281 42.6562 49.0859ZM66.0312 49.0859C67.4922 49.5156 70.2422 50.2891 69.6406 53.125C69.3828 54.8438 67.8359 55.875 65.7734 55.875C65.4297 55.875 65.0859 55.875 64.7422 55.7891C64.0547 55.7031 63.2812 55.4453 62.6797 55.2734C61.9922 55.0156 61.4766 54.1562 61.7344 53.4688C61.9922 52.6953 62.6797 52.2656 63.3672 52.5234C63.9688 52.7812 64.5703 53.0391 65.1719 53.125C66.1172 53.2969 66.9766 53.0391 66.9766 52.6953C67.0625 52.1797 66.0312 52.0078 64.9141 51.6641C63.8828 51.3203 61.0469 50.5469 61.5625 47.7109C61.9062 45.6484 63.8828 44.6172 66.5469 44.9609C67.0625 45.0469 67.6641 45.2188 68.1797 45.3906C68.8672 45.6484 69.2969 46.4219 69.0391 47.1953C68.7812 47.8828 68.0078 48.3125 67.2344 48.0547C66.8906 47.8828 66.4609 47.7969 66.1172 47.7109C65.1719 47.5391 64.3125 47.7109 64.3125 48.1406C64.2266 48.6562 65.0859 48.8281 66.0312 49.0859ZM58.5547 44.9609C59.0703 45.1328 59.5 45.7344 59.5 46.25V54.5C59.5 55.2734 58.8125 55.875 58.125 55.875C57.3516 55.875 56.75 55.2734 56.75 54.5V50.375L55.0312 52.6094C54.5156 53.2969 53.3984 53.2969 52.8828 52.6094L51.25 50.375V54.5C51.25 55.2734 50.5625 55.875 49.875 55.875C49.1016 55.875 48.5 55.2734 48.5 54.5V46.25C48.5 45.7344 48.8438 45.1328 49.3594 44.9609C49.9609 44.7891 50.5625 44.9609 50.9062 45.4766L54 49.5156L57.0078 45.4766C57.3516 44.9609 57.9531 44.7891 58.5547 44.9609Z" fill="#E7F8FB"></path>
</g>
<rect x="5" y="5" width="98" height="98" rx="49" stroke="white" stroke-width="2"></rect>
<defs>
<filter id="filter0_d_77_697" x="20" y="24.5" width="68" height="68.0859" filterUnits="userSpaceOnUse" color-interpolation-filters="sRGB">
<feFlood flood-opacity="0" result="BackgroundImageFix"></feFlood>
<feColorMatrix in="SourceAlpha" type="matrix" values="0 0 0 0 0 0 0 0 0 0 0 0 0 0 0 0 0 0 127 0" result="hardAlpha"></feColorMatrix>
<feOffset dy="4"></feOffset>
<feGaussianBlur stdDeviation="6"></feGaussianBlur>
<feComposite in2="hardAlpha" operator="out"></feComposite>
<feColorMatrix type="matrix" values="0 0 0 0 0 0 0 0 0 0 0 0 0 0 0 0 0 0 0.45 0"></feColorMatrix>
<feBlend mode="normal" in2="BackgroundImageFix" result="effect1_dropShadow_77_697"></feBlend>
<feBlend mode="normal" in="SourceGraphic" in2="effect1_dropShadow_77_697" result="shape"></feBlend>
</filter>
</defs>
</svg>