<svg width="108" height="108" viewBox="0 0 108 108" fill="none" xmlns="http://www.w3.org/2000/svg">
<rect width="108" height="108" rx="24" fill="#002677"></rect>
<rect x="5" y="5" width="98" height="98" rx="21" stroke="white" stroke-width="2"></rect>
<path d="M47.1709 81.2814C49.0297 81.9383 50.9818 82.2709 52.9469 82.2656C61.6417 82.2656 67.6942 75.7713 67.6942 63.4218V26.6236L71 25V64.0611C71 76.6574 64.6956 84 55.7673 84C52.7058 83.977 49.7176 83.032 47.1709 81.2814ZM43.3981 77.5373C45.4013 78.2241 47.4075 78.6671 49.1741 78.6671C56.4832 78.6671 61.3529 73.9451 61.3529 63.2699V29.4309L64.6003 27.8484V63.5706C64.6003 74.7395 59.11 80.4458 51.4691 80.4458C48.6487 80.4458 45.7853 79.3634 43.3981 77.5373ZM41.1031 74.1983C42.6627 74.7245 44.2865 75.0218 45.9266 75.0813C51.6105 75.0813 55.0976 71.8848 55.0976 63.4725V32.2793L58.2959 30.6968V62.9788C58.2959 72.426 54.096 76.7049 48.0773 76.7049C45.5465 76.6924 43.0921 75.8103 41.1031 74.1983ZM52.0897 64.3587V33.561L38 40.1029V65.1056C38 69.8782 40.9126 73.0748 45.2108 73.0748C49.509 73.0748 52.0897 69.8181 52.0897 64.3587Z" fill="white"></path>
</svg>