<svg width="108" height="108" viewBox="0 0 108 108" fill="none" xmlns="http://www.w3.org/2000/svg">
<rect width="108" height="108" rx="54" fill="#196ECF"></rect>
<g filter="url(#filter0_d_78_944)">
<path d="M48.4141 51.75V62.75C48.4141 64.2969 47.2109 65.5 45.6641 65.5H42.9141C39.9062 65.5 37.4141 63.0078 37.4141 60V54.5C37.4141 51.4922 39.8203 49 42.9141 49H45.6641C47.125 49 48.4141 50.2891 48.4141 51.75ZM45.6641 62.75V51.75H42.9141C41.3672 51.75 40.1641 53.0391 40.1641 54.5V60C40.1641 61.5469 41.3672 62.75 42.9141 62.75H45.6641ZM64.9141 65.5V65.5859H62.25C60.7031 65.5859 59.5 64.3828 59.5 62.8359V51.8359C59.5 50.375 60.7031 49.0859 62.25 49.0859H64.9141C67.9219 49.0859 70.4141 51.4922 70.4141 54.5V60C70.4141 63.0078 67.9219 65.5 64.9141 65.5ZM62.1641 51.75L62.0781 62.75H64.8281C66.2891 62.75 67.5781 61.5469 67.5781 60V54.5C67.5781 53.0391 66.2891 51.75 64.8281 51.75H62.1641ZM56.0625 32.6719C67.4062 33.7031 76 43.6719 75.8281 55.1016V69.7109C75.8281 73.4922 72.7344 76.5 68.9531 76.5H52.5391C50.0469 76.5 48.0703 74.2656 48.5 71.6016C48.9297 69.625 50.7344 68.25 52.7109 68.25H57.6953C59.3281 68.25 60.9609 69.1094 61.7344 70.5703C62.3359 71.6875 62.3359 72.8047 61.9062 73.75H69.125C71.3594 73.75 73.25 71.8594 73.25 69.625V55.1016C73.25 45.0469 65.7734 36.2812 55.7188 35.3359C44.2031 34.3047 35.0078 43.5859 34.75 54.5V55.9609C34.6641 56.6484 34.0625 57.25 33.375 57.25C32.6016 57.25 31.9141 56.6484 31.9141 55.875L32 54.5859C32.3438 41.9531 42.8281 31.3828 56.0625 32.6719ZM58.0391 73.75C58.8125 73.75 59.4141 73.1484 59.4141 72.375C59.4141 71.6875 58.7266 71 58.0391 71H52.5391C51.7656 71 51.1641 71.6875 51.1641 72.375C51.1641 73.1484 51.7656 73.75 52.5391 73.75H58.0391Z" fill="#E7F8FB"></path>
</g>
<rect x="5" y="5" width="98" height="98" rx="49" stroke="white" stroke-width="2"></rect>
<defs>
<filter id="filter0_d_78_944" x="19.9141" y="23.3828" width="68.0859" height="69.1172" filterUnits="userSpaceOnUse" color-interpolation-filters="sRGB">
<feFlood flood-opacity="0" result="BackgroundImageFix"></feFlood>
<feColorMatrix in="SourceAlpha" type="matrix" values="0 0 0 0 0 0 0 0 0 0 0 0 0 0 0 0 0 0 127 0" result="hardAlpha"></feColorMatrix>
<feOffset dy="4"></feOffset>
<feGaussianBlur stdDeviation="6"></feGaussianBlur>
<feComposite in2="hardAlpha" operator="out"></feComposite>
<feColorMatrix type="matrix" values="0 0 0 0 0 0 0 0 0 0 0 0 0 0 0 0 0 0 0.45 0"></feColorMatrix>
<feBlend mode="normal" in2="BackgroundImageFix" result="effect1_dropShadow_78_944"></feBlend>
<feBlend mode="normal" in="SourceGraphic" in2="effect1_dropShadow_78_944" result="shape"></feBlend>
</filter>
</defs>
</svg>