<svg width="108" height="108" viewBox="0 0 108 108" fill="none" xmlns="http://www.w3.org/2000/svg">
<rect width="108" height="108" rx="54" fill="#196ECF"></rect>
<g filter="url(#filter0_d_729_3882)">
<path d="M62.2498 32.5002C65.2576 32.5002 67.7498 34.9924 67.7498 38.0002V71.0002C67.7498 74.094 65.2576 76.5002 62.2498 76.5002H45.7498C42.656 76.5002 40.2498 74.094 40.2498 71.0002V38.0002C40.2498 34.9924 42.656 32.5002 45.7498 32.5002H62.2498ZM64.9998 71.0002V38.0002C64.9998 36.5393 63.7107 35.2502 62.2498 35.2502H45.7498C44.2029 35.2502 42.9998 36.5393 42.9998 38.0002V71.0002C42.9998 72.5471 44.2029 73.7502 45.7498 73.7502H62.2498C63.7107 73.7502 64.9998 72.5471 64.9998 71.0002ZM56.7498 66.8752C57.4373 66.8752 58.1248 67.5627 58.1248 68.2502C58.1248 69.0237 57.4373 69.6252 56.7498 69.6252H51.2498C50.4763 69.6252 49.8748 69.0237 49.8748 68.2502C49.8748 67.5627 50.4763 66.8752 51.2498 66.8752H56.7498Z" fill="#E7F8FB"></path>
</g>
<rect x="5" y="5" width="98" height="98" rx="49" stroke="white" stroke-width="2"></rect>
<defs>
<filter id="filter0_d_729_3882" x="24.8425" y="22.2287" width="58.3146" height="74.8146" filterUnits="userSpaceOnUse" color-interpolation-filters="sRGB">
<feFlood flood-opacity="0" result="BackgroundImageFix"></feFlood>
<feColorMatrix in="SourceAlpha" type="matrix" values="0 0 0 0 0 0 0 0 0 0 0 0 0 0 0 0 0 0 127 0" result="hardAlpha"></feColorMatrix>
<feOffset dy="5.13577"></feOffset>
<feGaussianBlur stdDeviation="7.70365"></feGaussianBlur>
<feComposite in2="hardAlpha" operator="out"></feComposite>
<feColorMatrix type="matrix" values="0 0 0 0 0 0 0 0 0 0 0 0 0 0 0 0 0 0 0.45 0"></feColorMatrix>
<feBlend mode="normal" in2="BackgroundImageFix" result="effect1_dropShadow_729_3882"></feBlend>
<feBlend mode="normal" in="SourceGraphic" in2="effect1_dropShadow_729_3882" result="shape"></feBlend>
</filter>
</defs>
</svg>