<svg width="108" height="108" viewBox="0 0 108 108" fill="none" xmlns="http://www.w3.org/2000/svg">
<rect width="108" height="108" rx="54" fill="#196ECF"></rect>
<g filter="url(#filter0_d_77_700)">
<path d="M44.6306 56.7844L42.1392 58.7897C43.9622 62.0711 46.6967 64.8056 49.9781 66.6286L51.9835 64.1372C52.895 62.9826 54.4749 62.618 55.8118 63.2257L62.5569 66.0817C64.0153 66.6894 64.8053 68.3301 64.5015 69.8493L63.043 76.1691C62.9215 76.7767 62.5569 77.2629 62.1315 77.6882C61.5239 78.2959 60.7339 78.7213 59.7616 78.5997C51.8012 78.6605 44.3876 75.5006 38.797 69.9101C33.2065 64.3195 30.0466 56.9059 30.1073 48.9454C30.1073 47.3655 31.1404 46.0894 32.5988 45.7248L38.9186 44.2664C40.4377 43.9625 42.0177 44.6918 42.6861 46.2109L45.5422 52.9561C46.1498 54.2929 45.7852 55.8729 44.6306 56.7844ZM49.6743 69.6062C45.1168 67.3578 41.41 63.6511 39.1616 59.0935C38.9186 58.4859 39.0401 57.8782 39.5262 57.3921L42.8684 54.6575C42.8684 54.6575 42.8684 54.6575 42.9292 54.5968C43.0507 54.4752 43.1722 54.2322 43.0507 53.9891L40.0124 47.3047C39.9516 47.0009 39.6478 46.9401 39.4047 46.9401L33.1457 48.4593C33.0242 48.4593 32.9634 48.5201 32.9026 48.5808C32.7811 48.7024 32.7203 48.7631 32.7203 49.0062C32.7203 56.1767 35.5764 62.9218 40.6808 68.0263C45.7852 73.1307 52.5911 75.926 59.7616 75.926C60.1262 75.926 60.3085 75.7437 60.3085 75.5006L61.8277 69.2416C61.8277 68.9985 61.7062 68.7555 61.4631 68.6339L54.7787 65.7171C54.5357 65.5956 54.1711 65.7171 54.1103 65.8994L51.3758 69.2416C51.0112 69.7278 50.282 69.8493 49.6743 69.6062ZM49.7958 32.1738C57.2094 31.0799 64.623 33.5106 69.9097 38.7974C75.2572 44.1449 77.6879 51.5584 76.5941 58.972C76.5333 59.2758 76.4118 59.5189 76.2295 59.7012C75.9256 60.005 75.5003 60.1873 75.0749 60.1266C74.2849 60.0658 73.7988 59.3366 73.9203 58.6074C74.8318 51.9838 72.705 45.4817 67.9652 40.7419C63.2861 36.0628 56.784 33.936 50.1604 34.8475C49.4312 34.969 48.702 34.4829 48.6413 33.6929C48.5197 32.9637 49.0059 32.2345 49.7958 32.1738ZM49.492 40.1342C54.8395 39.162 60.3085 40.8634 64.0761 44.631C67.9044 48.4593 69.6059 53.9283 68.6336 59.2758C68.5728 59.5797 68.3905 59.762 68.2082 59.9443C67.9044 60.2481 67.479 60.4304 66.9929 60.4304C66.2029 60.2481 65.7168 59.5189 65.8991 58.7289C66.7498 54.3537 65.3522 49.7962 62.1315 46.5755C58.9717 43.4156 54.4141 42.018 50.0389 42.8687C49.2489 43.051 48.5197 42.5649 48.3374 41.7749C48.2159 41.0457 48.702 40.3165 49.492 40.1342ZM50.5858 48.6416C53.2596 47.7909 56.1764 48.5201 58.1817 50.5254C60.2478 52.5915 60.977 55.5083 60.1262 58.182C60.0047 58.4251 59.8832 58.5466 59.7009 58.7289C59.397 59.0328 58.8501 59.2151 58.364 59.0935C57.6348 58.8505 57.2094 58.0605 57.4525 57.3313C58.0602 55.6298 57.6348 53.746 56.2979 52.4092C55.0218 51.1331 53.138 50.7077 51.4365 51.3154C50.7073 51.5584 49.9174 51.1331 49.6743 50.4039C49.4312 49.6746 49.8566 48.8847 50.5858 48.6416Z" fill="#E7F8FB"></path>
</g>
<rect x="5" y="5" width="98" height="98" rx="49" stroke="white" stroke-width="2"></rect>
<defs>
<filter id="filter0_d_77_700" x="11.0583" y="15.0586" width="86.4077" height="86.4077" filterUnits="userSpaceOnUse" color-interpolation-filters="sRGB">
<feFlood flood-opacity="0" result="BackgroundImageFix"></feFlood>
<feColorMatrix in="SourceAlpha" type="matrix" values="0 0 0 0 0 0 0 0 0 0 0 0 0 0 0 0 0 0 127 0" result="hardAlpha"></feColorMatrix>
<feOffset dy="4"></feOffset>
<feGaussianBlur stdDeviation="6"></feGaussianBlur>
<feComposite in2="hardAlpha" operator="out"></feComposite>
<feColorMatrix type="matrix" values="0 0 0 0 0 0 0 0 0 0 0 0 0 0 0 0 0 0 0.45 0"></feColorMatrix>
<feBlend mode="normal" in2="BackgroundImageFix" result="effect1_dropShadow_77_700"></feBlend>
<feBlend mode="normal" in="SourceGraphic" in2="effect1_dropShadow_77_700" result="shape"></feBlend>
</filter>
</defs>
</svg>